<svg xmlns="http://www.w3.org/2000/svg" viewBox="0 0 512 512">
  <rect width="512" height="512" rx="96" fill="#16a34a" />
  <path
    d="M256 96c-88 0-160 72-160 160 0 70 45 129 108 151-2-14-3-33 1-47 4-17 30-127 30-127s-8-15-8-38c0-36 21-63 47-63 22 0 33 17 33 37 0 22-14 56-22 87-6 27 13 49 40 49 48 0 81-62 81-135 0-56-38-97-99-97-72 0-115 54-115 109 0 21 8 44 18 56 2 2 2 4 2 6-2 8-6 24-7 27-1 5-4 6-9 4-33-15-53-63-53-101 0-82 60-158 172-158 90 0 160 64 160 150 0 90-56 162-135 162-26 0-51-14-59-30 0 0-13 50-16 62-6 22-22 50-33 67 25 8 51 12 79 12 88 0 160-72 160-160S344 96 256 96z"
    fill="#ffffff"
  />
</svg>
